<svg xmlns="http://www.w3.org/2000/svg" fill="none" viewBox="20 20 110 110">
<path class="svg-color-primary" d="M41.9595 75.3054C41.9595 74.0584 42.0317 72.8246 42.1695 71.6105L23.2027 65.4479C22.5989 68.644 22.2773 71.9386 22.2773 75.3054C22.2773 90.4001 28.6499 104.012 38.8553 113.587L50.5766 97.4552C45.2344 91.6208 41.9661 83.8437 41.9661 75.3054H41.9595ZM107.589 75.3054C107.589 83.8437 104.327 91.6208 98.9781 97.4552L110.699 113.587C120.905 104.012 127.277 90.4001 127.277 75.3054C127.277 71.9386 126.956 68.644 126.352 65.4479L107.385 71.6105C107.523 72.8246 107.595 74.0584 107.595 75.3054H107.589ZM81.337 43.1471C90.7613 45.0635 98.7221 51.016 103.329 59.1278L122.296 52.9652C114.788 37.0305 99.5031 25.4798 81.337 23.209V43.1471ZM46.2188 59.1278C50.826 51.016 58.7803 45.0635 68.2112 43.1471V23.209C50.0385 25.4732 34.76 37.0239 27.252 52.9652L46.2188 59.1278V59.1278ZM88.3659 105.18C84.2247 107.07 79.6241 108.12 74.7741 108.12C69.9241 108.12 65.3235 107.07 61.1823 105.18L49.4609 121.311C56.9689 125.453 65.5926 127.809 74.7741 127.809C83.9556 127.809 92.5792 125.453 100.087 121.311L88.3659 105.18Z" stroke="#686B6F" stroke-width="4"/>
</svg>