<svg width="109" height="109" viewBox="0 0 109 109" fill="none" xmlns="http://www.w3.org/2000/svg">
<path class="svg-color-primary" d="M10.077 54.7158C10.0758 46.9173 12.1275 39.2559 16.0259 32.5018C19.9244 25.7477 25.5321 20.1388 32.2855 16.2391C39.0389 12.3393 46.6998 10.2861 54.4983 10.2858C62.2968 10.2855 69.9579 12.3381 76.7116 16.2373C77.6386 16.7644 78.7365 16.9034 79.7657 16.624C80.7949 16.3446 81.6717 15.6695 82.205 14.7459C82.7382 13.8224 82.8845 12.7254 82.6119 11.6944C82.3393 10.6634 81.67 9.78206 80.75 9.24272C70.7416 3.46434 59.1062 1.14982 47.6482 2.65809C36.1903 4.16637 25.5503 9.41316 17.3781 17.5848C9.20603 25.7563 3.95856 36.3961 2.44955 47.8539C0.940538 59.3117 3.25432 70.9473 9.03205 80.9561C14.8098 90.9649 23.7286 98.7876 34.4053 103.211C45.082 107.635 56.9199 108.411 68.0831 105.421C79.2464 102.431 89.1111 95.8415 96.1475 86.6737C103.184 77.5059 106.999 66.2725 107 54.7158C107 53.6447 106.575 52.6175 105.817 51.8601C105.06 51.1028 104.033 50.6773 102.962 50.6773C101.89 50.6773 100.863 51.1028 100.106 51.8601C99.3486 52.6175 98.9231 53.6447 98.9231 54.7158C98.9231 66.4975 94.2428 77.7967 85.9119 86.1276C77.5809 94.4586 66.2818 99.1388 54.5 99.1388C42.7183 99.1388 31.4191 94.4586 23.0882 86.1276C14.7573 77.7967 10.077 66.4975 10.077 54.7158Z" fill="#686B6F" stroke="#686B6F" stroke-width="3"/>
<path class="svg-color-primary" d="M99.599 28.2259C99.9481 27.8768 100.225 27.4624 100.414 27.0064C100.603 26.5503 100.7 26.0616 100.7 25.5679C100.7 25.0743 100.603 24.5855 100.414 24.1295C100.225 23.6734 99.9481 23.2591 99.599 22.91C99.25 22.561 98.8356 22.2841 98.3796 22.0952C97.9235 21.9063 97.4347 21.8091 96.9411 21.8091C96.4475 21.8091 95.9587 21.9063 95.5027 22.0952C95.0466 22.2841 94.6322 22.561 94.2832 22.91L44.3835 72.8172L24.5167 52.9429C24.1677 52.5939 23.7533 52.317 23.2973 52.1281C22.8412 51.9392 22.3525 51.842 21.8588 51.842C21.3652 51.842 20.8764 51.9392 20.4204 52.1281C19.9643 52.317 19.55 52.5939 19.2009 52.9429C18.8519 53.292 18.575 53.7064 18.3861 54.1624C18.1972 54.6184 18.1 55.1072 18.1 55.6009C18.1 56.0945 18.1972 56.5833 18.3861 57.0393C18.575 57.4953 18.8519 57.9097 19.2009 58.2588L41.7256 80.7835C42.0743 81.1331 42.4886 81.4104 42.9447 81.5997C43.4008 81.7889 43.8897 81.8864 44.3835 81.8864C44.8773 81.8864 45.3663 81.7889 45.8223 81.5997C46.2784 81.4104 46.6927 81.1331 47.0414 80.7835L99.599 28.2259Z" fill="#686B6F" stroke="#686B6F" stroke-width="3"/>
</svg>
