<svg width="151" height="151" viewBox="0 0 151 151" fill="none" xmlns="http://www.w3.org/2000/svg">
<path class="svg-color-primary" d="M75.5 23.209C46.498 23.209 23 46.707 23 75.709C23 104.711 46.498 128.209 75.5 128.209C104.502 128.209 128 104.711 128 75.709C128 46.707 104.502 23.209 75.5 23.209ZM75.5 118.048C52.1079 118.048 33.1613 99.1011 33.1613 75.709C33.1613 52.3168 52.1079 33.3703 75.5 33.3703C98.8921 33.3703 117.839 52.3168 117.839 75.709C117.839 99.1011 98.8921 118.048 75.5 118.048ZM88.5827 95.9469L70.6099 82.8854C69.9536 82.3985 69.5726 81.6364 69.5726 80.832V46.0719C69.5726 44.6747 70.7157 43.5316 72.1129 43.5316H78.8871C80.2843 43.5316 81.4274 44.6747 81.4274 46.0719V76.0689L95.5686 86.3572C96.7117 87.1828 96.9446 88.7705 96.1189 89.9136L92.1391 95.3965C91.3135 96.5185 89.7258 96.7725 88.5827 95.9469Z" fill="#686B6F"/>
</svg>
