<svg xmlns="http://www.w3.org/2000/svg" fill="none" viewBox="23 23.21 105 104.6">
<path class="svg-color-primary" d="M42.6822 75.3054C42.6822 74.0584 42.7544 72.8246 42.8922 71.6105L23.9254 65.4479C23.3216 68.644 23 71.9386 23 75.3054C23 90.4001 29.3726 104.012 39.5779 113.587L51.2993 97.4552C45.9571 91.6208 42.6887 83.8437 42.6887 75.3054H42.6822ZM108.311 75.3054C108.311 83.8437 105.049 91.6208 99.7007 97.4552L111.422 113.587C121.627 104.012 128 90.4001 128 75.3054C128 71.9386 127.678 68.644 127.075 65.4479L108.108 71.6105C108.246 72.8246 108.318 74.0584 108.318 75.3054H108.311ZM82.0596 43.1471C91.484 45.0635 99.4448 51.016 104.052 59.1278L123.019 52.9652C115.511 37.0305 100.226 25.4798 82.0596 23.209V43.1471ZM46.9415 59.1278C51.5487 51.016 59.5029 45.0635 68.9338 43.1471V23.209C50.7611 25.4732 35.4827 37.0239 27.9747 52.9652L46.9415 59.1278ZM89.0885 105.18C84.9473 107.07 80.3467 108.12 75.4967 108.12C70.6467 108.12 66.0461 107.07 61.9049 105.18L50.1836 121.311C57.6915 125.453 66.3152 127.809 75.4967 127.809C84.6782 127.809 93.3019 125.453 100.81 121.311L89.0885 105.18Z" fill="#686B6F"/>
</svg>