<svg xmlns="http://www.w3.org/2000/svg" fill="none" viewBox="38.45 33.42 75.71 88.1">
<path class="svg-color-primary" d="M42.3079 121.512C41.4791 121.52 40.6814 121.197 40.0903 120.616C39.4991 120.035 39.163 119.244 39.1557 118.415C39.1485 117.586 39.4708 116.788 40.0517 116.197C40.6326 115.606 41.4246 115.27 42.2533 115.263L48.5031 115.208L48.4486 108.958C48.401 103.652 49.8555 98.4406 52.6441 93.926C55.4327 89.4113 59.4416 85.7777 64.2078 83.4448C66.0126 82.5603 66.9559 81.0645 66.9442 79.7333L66.9061 75.3585C66.8944 74.0273 65.919 72.5482 64.1052 71.6953C59.2991 69.4459 55.2274 65.8828 52.3604 61.4175C49.4934 56.9522 47.9482 51.7669 47.9032 46.4607L47.8486 40.2109L41.5989 40.2655C40.7701 40.2727 39.9724 39.9504 39.3812 39.3695C38.7901 38.7886 38.4539 37.9966 38.4467 37.1679C38.4395 36.3391 38.7618 35.5414 39.3427 34.9502C39.9236 34.3591 40.7155 34.0229 41.5443 34.0157L110.292 33.4157C111.12 33.4085 111.918 33.7308 112.509 34.3117C113.1 34.8926 113.437 35.6846 113.444 36.5134C113.451 37.3421 113.129 38.1398 112.548 38.731C111.967 39.3221 111.175 39.6583 110.346 39.6655L104.096 39.7201L104.151 45.9698C104.199 51.2761 102.744 56.4875 99.9555 61.0021C97.1669 65.5168 93.1579 69.1504 88.3918 71.4833C86.587 72.3678 85.6437 73.8636 85.6554 75.1948L85.6935 79.5697C85.7051 80.9009 86.6806 82.3799 88.4944 83.2329C93.3005 85.4822 97.3722 89.0453 100.239 93.5106C103.106 97.9759 104.651 103.161 104.696 108.467L104.751 114.717L111.001 114.663C111.83 114.655 112.627 114.978 113.218 115.559C113.809 116.14 114.146 116.932 114.153 117.76C114.16 118.589 113.838 119.387 113.257 119.978C112.676 120.569 111.884 120.905 111.055 120.912L42.3079 121.512ZM54.0984 40.1564L54.1529 46.4061C54.1822 49.7623 54.9599 52.9306 56.3409 55.7624L95.8769 55.4174C97.202 52.562 97.9305 49.3805 97.9013 46.0244L97.8467 39.7746L54.0984 40.1564ZM73.194 79.6788C73.2322 84.0598 70.274 87.4295 66.9569 89.0585C63.2494 90.8729 60.1309 93.6992 57.9617 97.2109C55.7925 100.723 54.6612 104.776 54.6983 108.904C54.6983 108.904 60.0398 100.738 73.3669 99.4905L73.194 79.6788ZM79.4438 79.6242L79.6167 99.436C92.9635 100.451 98.4467 108.522 98.4467 108.522C98.4118 104.395 97.2098 100.361 94.9797 96.8878C92.7495 93.4146 89.5822 90.6431 85.8436 88.8937C82.4986 87.3228 79.4821 84.0115 79.4438 79.6305L79.4438 79.6242Z" fill="#686B6F"/>
</svg>